<svg xmlns="http://www.w3.org/2000/svg" width="34" height="32" viewBox="0 0 36.986 34"><defs><style>.a{fill:#999;stroke:#999;stroke-width:0.3px;}</style></defs><g transform="translate(0.165 0.151)"><g transform="translate(0.005 0)"><g transform="translate(0 0)"><path class="a" d="M11.011,0H8.3a4.4,4.4,0,0,0-4.3,3.37L.463,4.45A.647.647,0,0,0,.652,5.716H3.889V13.6a.647.647,0,0,0,.647.647h5.652a5.319,5.319,0,0,0,5.354-5.27V4.532A4.537,4.537,0,0,0,11.011,0Zm3.237,8.973a4.022,4.022,0,0,1-4.059,3.975h-5V5.826h9.064ZM5.184,4.532V4.344A2,2,0,0,1,5.206,4a.074.074,0,0,1,0-.031A3.093,3.093,0,0,1,8.3,1.294h2.706a3.241,3.241,0,0,1,3.237,3.237Z" transform="translate(-0.005 0)"/></g></g><g transform="translate(3.889 10.122)"><path class="a" d="M80.172,152H62.566a.628.628,0,0,0-.607.647v13.227l-3.035-3.2v-1.614a5.66,5.66,0,0,0-5.464-5.827H48.6a.628.628,0,0,0-.607.647V177.9a.628.628,0,0,0,.607.647h9.713a.628.628,0,0,0,.607-.647v-7.345c1.518,1.511,1.564,1.518,1.821,1.518h9.462l2.25,2.4a.581.581,0,0,0,.858,0l3.035-3.237a.678.678,0,0,0,0-.915l-2-2.132h5.82a.628.628,0,0,0,.607-.647V152.647A.628.628,0,0,0,80.172,152Zm-10.321,1.295h3.035v13.6H69.851Zm-6.678,0h5.464v13.6H63.173ZM49.21,156.532h4.25a4.4,4.4,0,0,1,4.25,4.532v.335l-3.218-3.386a.585.585,0,0,0-.425-.186H49.21Zm0,2.59H52.6l-2,2.132a.678.678,0,0,0,0,.916l.011.012s2.3,2.338,4.668,4.718v2.235l-6.071,4.316Zm8.5,18.128H56.5v-3.885h1.214Zm0-5.179H55.888a.628.628,0,0,0-.607.647v4.532H49.21v-2.243l7.015-4.985a.66.66,0,0,0,.27-.541v-1.36l1.208,1.211.006.006Zm17.354-1.295L72.887,173.1l-2-2.132a.588.588,0,0,0-.429-.19h-9.5c-.217-.2-.776-.742-2.223-2.188l-.2-.2c-.653-.654-1.375-1.376-2.1-2.111-1.838-1.849-3.7-3.734-4.531-4.578l2.166-2.313L62,167.733a.606.606,0,0,0,.571.453H72.635Zm4.5-3.885H74.1v-13.6h5.464Z" transform="translate(-47.996 -152)"/></g><g transform="translate(31.023 14.31)"><g transform="translate(0 0)"><rect class="a" width="2.118" height="1.059" transform="translate(0)"/></g></g><g transform="translate(20.308 23.293)"><g transform="translate(0 0)"><rect class="a" width="1.059" height="1.059"/></g></g></g></svg>