<svg xmlns="http://www.w3.org/2000/svg" width="30.356" height="35.73" viewBox="0 0 30.356 35.73"><defs><style>.a{fill:#999;stroke:#999;stroke-width:0.5px;}</style></defs><g transform="translate(-15.108 0.25)"><g transform="translate(26.071)"><path class="a" d="M85.833,4.353a5.076,5.076,0,0,0-9.125-2.269.6.6,0,1,0,.964.7,3.882,3.882,0,0,1,6.979,1.733.6.6,0,0,0,.591.513.639.639,0,0,0,.085-.006A.6.6,0,0,0,85.833,4.353Z" transform="translate(-76.593)"/></g><g transform="translate(16.553 7.762)"><g transform="translate(0)"><path class="a" d="M49.567,47.647l-1.791-2.986a.6.6,0,0,0-.512-.29H45.547a.6.6,0,1,0,0,1.194h1.379L48,47.357H23.837l1.075-1.791h.632a.6.6,0,1,0,0-1.194h-.97a.6.6,0,0,0-.512.29L22.27,47.647a.6.6,0,0,0,.512.9H49.055a.6.6,0,0,0,.512-.9Z" transform="translate(-22.185 -44.372)"/></g></g><g transform="translate(31.1 3.346)"><path class="a" d="M115.2,21.312a.6.6,0,0,0-.371-.267l-8.14-1.9a.6.6,0,0,0-.717.445l-.614,2.624a.6.6,0,0,0,1.163.272L107,20.44l6.977,1.632-1.1,4.687a.6.6,0,0,0,.445.717.6.6,0,0,0,.137.016.6.6,0,0,0,.58-.461l1.232-5.269A.6.6,0,0,0,115.2,21.312Z" transform="translate(-105.343 -19.126)"/></g><g transform="translate(18.881 1.815)"><g transform="translate(0)"><path class="a" d="M47.215,15.5l-.544-4.6a.6.6,0,0,0-.663-.523l-9.987,1.18a.6.6,0,0,0-.523.663l.907,7.675a.6.6,0,0,0,.592.527.652.652,0,0,0,.071,0,.6.6,0,0,0,.523-.663l-.837-7.082,8.8-1.04.474,4.009a.6.6,0,0,0,1.186-.14Z" transform="translate(-35.494 -10.374)"/></g></g><g transform="translate(23.342 5.733)"><path class="a" d="M72.979,38.155l-1.185-4.929a.6.6,0,0,0-.72-.441L61.455,35.1a.6.6,0,0,0-.441.72l.592,2.463A.6.6,0,1,0,62.767,38l-.453-1.883,8.458-2.034,1.046,4.348a.6.6,0,0,0,1.161-.28Z" transform="translate(-60.997 -32.769)"/></g><g transform="translate(15.359 10.748)"><path class="a" d="M44.02,62.007a.6.6,0,0,0-.6-.566H17.15a.6.6,0,0,0-.6.566L15.359,85.295a.6.6,0,0,0,.6.628H44.617a.6.6,0,0,0,.6-.628ZM16.584,84.728l1.133-22.093H42.855l1.133,22.093Z" transform="translate(-15.359 -61.441)"/></g><g transform="translate(32.973 13.136)"><path class="a" d="M117.843,75.093a1.791,1.791,0,1,0,1.791,1.791A1.793,1.793,0,0,0,117.843,75.093Zm0,2.389a.6.6,0,1,1,.6-.6A.6.6,0,0,1,117.843,77.482Z" transform="translate(-116.052 -75.093)"/></g><g transform="translate(24.017 13.136)"><g transform="translate(0)"><path class="a" d="M66.643,75.093a1.791,1.791,0,1,0,1.791,1.791A1.793,1.793,0,0,0,66.643,75.093Zm0,2.389a.6.6,0,1,1,.6-.6A.6.6,0,0,1,66.643,77.482Z" transform="translate(-64.852 -75.093)"/></g></g><g transform="translate(25.211 14.928)"><g transform="translate(0)"><path class="a" d="M81.233,85.333h-.046a.6.6,0,0,0-.6.6.59.59,0,0,0,.046.23v3.054a3.881,3.881,0,0,1-7.763,0V85.93a.6.6,0,1,0-1.194,0v3.284a5.075,5.075,0,1,0,10.151,0V85.93A.6.6,0,0,0,81.233,85.333Z" transform="translate(-71.679 -85.333)"/></g></g></g></svg>